# xmcd
#
# Track frame offsets:
#	150
#	11103
#	22961
#	35449
#	46472
#	55027
#	63842
#	75011
#	83129
#	91490
#	97123
#	109190
#
# Disc length: 1577 seconds
#
# Revision: 0
# Processed by: cddbd v1.5.2PL0 Copyright (c) Steve Scherf et al.
# Submitted via: dBpowerAMP V4.0
#
DISCID=8706270c
DTITLE=Rachel Brooke - Demos
DYEAR=1900
DGENRE=Alt Country
TTITLE0=How Cold
TTITLE1=Still Burning
TTITLE2=You Don't Hear Me Crying
TTITLE3=The Lights of Memphis
TTITLE4=Broke Down and Hell Bound
TTITLE5=Blue day
TTITLE6=Blackin Out
TTITLE7=Merlot
TTITLE8=Sparrow
TTITLE9=I Don't Worry
TTITLE10=Too Far Gone
TTITLE11=Everything But You
EXTD=
EXTT0=
EXTT1=
EXTT2=
EXTT3=
EXTT4=
EXTT5=
EXTT6=
EXTT7=
EXTT8=
EXTT9=
EXTT10=
EXTT11=
PLAYORDER=
